# xmcd
#
# Track frame offsets:
#	150
#	14889
#	36220
#	56367
#	77470
#	100285
#	116796
#	140411
#	160091
#	178798
#	202335
#	220721
#	231778
#	250350
#	273259
#	288190
#	309138
#
# Disc length: 4413 seconds
#
# Revision: 0
# Processed by: cddbd v1.5.2PL0 Copyright (c) Steve Scherf et al.
# Submitted via: dBpowerAMP V4.0
#
DISCID=f0113b11
DTITLE=Various Artist - The big worship box set 3 CD 1
DYEAR=2008
DGENRE=Christian Worship
TTITLE0=01 Praise Him you Heavens
TTITLE1=02 Good and gracious
TTITLE2=03 Hungry I come to You
TTITLE3=04 Jesus All for Jesus
TTITLE4=05 I can only imagine
TTITLE5=06 I am yours
TTITLE6=07 Jesus Your beauty
TTITLE7=08 Many are the words we speak
TTITLE8=09 Theres a new song upon my lips
TTITLE9=10 Glorious king
TTITLE10=11 Lord I come
TTITLE11=12 Jesus we enthrone You
TTITLE12=13 Who is there like the Lord our God
TTITLE13=14 My troubled soul
TTITLE14=15 Jesus You alone
TTITLE15=16 Do you love to praise the Lord
TTITLE16=17 There is a day
EXTD=
EXTT0=
EXTT1=
EXTT2=
EXTT3=
EXTT4=
EXTT5=
EXTT6=
EXTT7=
EXTT8=
EXTT9=
EXTT10=
EXTT11=
EXTT12=
EXTT13=
EXTT14=
EXTT15=
EXTT16=
PLAYORDER=
